<svg xmlns="http://www.w3.org/2000/svg" xmlns:xlink="http://www.w3.org/1999/xlink" id="Layer_1" x="0" y="0" enable-background="new 0 0 100 100" version="1.1" viewBox="0 0 100 100" xml:space="preserve"><linearGradient id="SVGID_1_" x1="4.482" x2="90.128" y1="46.822" y2="46.822" gradientUnits="userSpaceOnUse"><stop offset="0" style="stop-color:#ff9715"/><stop offset=".534" style="stop-color:#468dc6"/><stop offset="1" style="stop-color:#17417f"/></linearGradient><path fill="url(#SVGID_1_)" d="M10.6,62.4c-4.1-4.3-6.1-9.5-6.1-15.6c0-6.1,2-11.3,6.1-15.6c4.1-4.3,9-6.5,14.9-6.5	c5.9,0,10.8,2.2,14.9,6.6c4.1,4.4,6.1,9.6,6.1,15.6c0,6-2.1,11.1-6.2,15.5c-1.8,2-4.1,3.7-6.6,4.8c-2.6,1.2-5.3,1.8-8,1.8	C19.7,68.9,14.7,66.8,10.6,62.4z M11.5,46.8c0,4.1,1.4,7.7,4.1,10.7c2.7,3,6,4.5,9.9,4.5c3.9,0,7.2-1.5,9.9-4.5	c2.7-3,4.1-6.5,4.1-10.6s-1.4-7.6-4.1-10.6c-2.7-3-6-4.5-9.9-4.5c-3.9,0-7.2,1.5-9.9,4.5C12.8,39.1,11.5,42.7,11.5,46.8z"/><linearGradient id="SVGID_2_" x1="4.236" x2="91.025" y1="47.59" y2="47.59" gradientUnits="userSpaceOnUse"><stop offset="0" style="stop-color:#ff9715"/><stop offset=".534" style="stop-color:#468dc6"/><stop offset="1" style="stop-color:#17417f"/></linearGradient><path fill="url(#SVGID_2_)" d="M64.3,67.9c-0.7,0.7-1.5,1-2.4,1c-0.9,0-1.7-0.3-2.4-1c-0.7-0.7-1-1.5-1-2.4V29.6	c0-0.9,0.3-1.7,1-2.4c0.7-0.7,1.5-1,2.4-1c0.9,0,1.7,0.3,2.4,1c0.7,0.7,1,1.5,1,2.4v17.6l19.9-20c0.7-0.7,1.5-1,2.4-1s1.7,0.3,2.4,1	c0.7,0.7,1,1.5,1,2.4c0,0.9-0.3,1.7-1,2.4L76.5,45.5l13.6,17.9c0.9,1.1,1.1,2.3,0.4,3.6c-0.7,1.3-1.6,1.9-2.8,1.9	c-1.2,0-2.1-0.4-2.8-1.2L71.7,50.3l-6.4,6.5v8.7C65.3,66.5,65,67.3,64.3,67.9z"/></svg>